<svg width="30" height="19" viewBox="0 0 30 19" fill="none" xmlns="http://www.w3.org/2000/svg">
<g clip-path="url(#clip0_50_2)">
<path d="M29.2817 5.26157L16.7247 17.8145C16.2652 18.2726 15.6429 18.5298 14.9942 18.5298C14.3454 18.5298 13.7231 18.2726 13.2637 17.8145L0.710663 5.26157C0.251817 4.80154 -0.00585938 4.17831 -0.00585938 3.52856C-0.00585938 2.87882 0.251817 2.25559 0.710663 1.79556L1.79066 0.715546C2.2507 0.2567 2.87392 -0.000976562 3.52367 -0.000976562C4.17341 -0.000976562 4.79664 0.2567 5.25667 0.715546L13.2687 8.72757C13.7281 9.18562 14.3504 9.44281 14.9992 9.44281C15.6479 9.44281 16.2702 9.18562 16.7297 8.72757L24.7417 0.715546C25.2017 0.2567 25.8249 -0.000976562 26.4747 -0.000976562C27.1244 -0.000976562 27.7476 0.2567 28.2077 0.715546L29.2877 1.79556C29.7435 2.25754 29.9986 2.88076 29.9975 3.52979C29.9964 4.17881 29.7391 4.80117 29.2817 5.26157Z" fill="black"/>
</g>
<defs>
<clipPath id="clip0_50_2">
<rect width="30" height="18.53" fill="white"/>
</clipPath>
</defs>
</svg>
